<svg xmlns="http://www.w3.org/2000/svg" xmlns:xlink="http://www.w3.org/1999/xlink" width="538.85" height="665.066" viewBox="0 0 538.85 665.066">
  <defs>
    <clipPath id="clip-path">
      <rect width="538.85" height="665.066" fill="none"/>
    </clipPath>
  </defs>
  <g id="Repeat_Grid_1" data-name="Repeat Grid 1" clip-path="url(#clip-path)">
    <g transform="translate(-332 -67.434)">
      <path id="Path_1" data-name="Path 1" d="M2470.369,719.713,2291.112,819.786s-13.088,9.143-18.826,19.6-4.126,26.6-4.126,26.6v255.682s-1.613,17.034,4.126,27.22,18.826,18.57,18.826,18.57l222.838,106.768a52.978,52.978,0,0,0,23.5,6,43.587,43.587,0,0,0,22-6l217.329-106.768s19.8-9.128,24.76-18.57,5.158-27.22,5.158-27.22V865.991s1.279-16.143-5.158-26.6-24.76-19.6-24.76-19.6L2604.487,719.713h0s-7.211-4.518-11.337-6.581-19.8-8.067-19.8-8.067l-2-1.1L2543.275,624.3s-5.7-9.349-9.285-9.135-7.91,9.135-7.91,9.135l-24.754,80.761h0s-21.687,9.213-23.75,10.417-1.25.625-1.25.625Z" transform="translate(-1935.95 -547.732)" fill="#006ec4"/>
      <circle id="Ellipse_1" data-name="Ellipse 1" cx="10" cy="10" r="10" transform="translate(831 324)" fill="#fff"/>
      <circle id="Ellipse_2" data-name="Ellipse 2" cx="10" cy="10" r="10" transform="translate(831 364)" fill="#fff"/>
      <circle id="Ellipse_3" data-name="Ellipse 3" cx="10" cy="10" r="10" transform="translate(831 404)" fill="#fff"/>
      <circle id="Ellipse_4" data-name="Ellipse 4" cx="10" cy="10" r="10" transform="translate(831 444)" fill="#fff"/>
      <circle id="Ellipse_5" data-name="Ellipse 5" cx="10" cy="10" r="10" transform="translate(831 484)" fill="#fff"/>
      <path id="Path_4" data-name="Path 4" d="M10-1c5.523,0,10,5.477,10,11A10,10,0,0,1,0,10C0,4.477,4.477-1,10-1Z" transform="translate(831 525)" fill="#fff"/>
      <circle id="Ellipse_7" data-name="Ellipse 7" cx="10" cy="10" r="10" transform="translate(831 565)" fill="#fff"/>
      <circle id="Ellipse_8" data-name="Ellipse 8" cx="10" cy="10" r="10" transform="translate(791 345)" fill="#fff"/>
      <circle id="Ellipse_9" data-name="Ellipse 9" cx="10" cy="10" r="10" transform="translate(791 385)" fill="#fff"/>
      <circle id="Ellipse_10" data-name="Ellipse 10" cx="10" cy="10" r="10" transform="translate(791 425)" fill="#fff"/>
      <circle id="Ellipse_11" data-name="Ellipse 11" cx="10" cy="10" r="10" transform="translate(791 465)" fill="#fff"/>
      <circle id="Ellipse_12" data-name="Ellipse 12" cx="10" cy="10" r="10" transform="translate(791 505)" fill="#fff"/>
      <path id="Path_5" data-name="Path 5" d="M10-1c5.523,0,10,5.477,10,11A10,10,0,0,1,0,10C0,4.477,4.477-1,10-1Z" transform="translate(791 546)" fill="#fff"/>
      <circle id="Ellipse_13" data-name="Ellipse 13" cx="10" cy="10" r="10" transform="translate(791 586)" fill="#fff"/>
      <circle id="Ellipse_14" data-name="Ellipse 14" cx="10" cy="10" r="10" transform="translate(751 366)" fill="#fff"/>
      <circle id="Ellipse_15" data-name="Ellipse 15" cx="10" cy="10" r="10" transform="translate(751 406)" fill="#fff"/>
      <circle id="Ellipse_16" data-name="Ellipse 16" cx="10" cy="10" r="10" transform="translate(751 446)" fill="#fff"/>
      <circle id="Ellipse_17" data-name="Ellipse 17" cx="10" cy="10" r="10" transform="translate(751 486)" fill="#fff"/>
      <circle id="Ellipse_18" data-name="Ellipse 18" cx="10" cy="10" r="10" transform="translate(751 526)" fill="#fff"/>
      <path id="Path_6" data-name="Path 6" d="M10-1c5.523,0,10,5.477,10,11A10,10,0,0,1,0,10C0,4.477,4.477-1,10-1Z" transform="translate(751 567)" fill="#fff"/>
      <circle id="Ellipse_19" data-name="Ellipse 19" cx="10" cy="10" r="10" transform="translate(751 607)" fill="#fff"/>
      <circle id="Ellipse_20" data-name="Ellipse 20" cx="10" cy="10" r="10" transform="translate(711 387)" fill="#fff"/>
      <circle id="Ellipse_21" data-name="Ellipse 21" cx="10" cy="10" r="10" transform="translate(711 427)" fill="#fff"/>
      <circle id="Ellipse_22" data-name="Ellipse 22" cx="10" cy="10" r="10" transform="translate(711 467)" fill="#fff"/>
      <circle id="Ellipse_23" data-name="Ellipse 23" cx="10" cy="10" r="10" transform="translate(711 507)" fill="#fff"/>
      <circle id="Ellipse_24" data-name="Ellipse 24" cx="10" cy="10" r="10" transform="translate(711 547)" fill="#fff"/>
      <path id="Path_7" data-name="Path 7" d="M10-1c5.523,0,10,5.477,10,11A10,10,0,0,1,0,10C0,4.477,4.477-1,10-1Z" transform="translate(711 588)" fill="#fff"/>
      <circle id="Ellipse_25" data-name="Ellipse 25" cx="10" cy="10" r="10" transform="translate(711 628)" fill="#fff"/>
      <circle id="Ellipse_26" data-name="Ellipse 26" cx="10" cy="10" r="10" transform="translate(671 409)" fill="#fff"/>
      <circle id="Ellipse_27" data-name="Ellipse 27" cx="10" cy="10" r="10" transform="translate(671 449)" fill="#fff"/>
      <circle id="Ellipse_28" data-name="Ellipse 28" cx="10" cy="10" r="10" transform="translate(671 489)" fill="#fff"/>
      <circle id="Ellipse_29" data-name="Ellipse 29" cx="10" cy="10" r="10" transform="translate(671 529)" fill="#fff"/>
      <circle id="Ellipse_30" data-name="Ellipse 30" cx="10" cy="10" r="10" transform="translate(671 569)" fill="#fff"/>
      <path id="Path_8" data-name="Path 8" d="M10-1c5.523,0,10,5.477,10,11A10,10,0,0,1,0,10C0,4.477,4.477-1,10-1Z" transform="translate(671 610)" fill="#fff"/>
      <circle id="Ellipse_31" data-name="Ellipse 31" cx="10" cy="10" r="10" transform="translate(671 650)" fill="#fff"/>
      <circle id="Ellipse_32" data-name="Ellipse 32" cx="10" cy="10" r="10" transform="translate(631 430)" fill="#fff"/>
      <circle id="Ellipse_33" data-name="Ellipse 33" cx="10" cy="10" r="10" transform="translate(631 470)" fill="#fff"/>
      <circle id="Ellipse_34" data-name="Ellipse 34" cx="10" cy="10" r="10" transform="translate(631 510)" fill="#fff"/>
      <circle id="Ellipse_35" data-name="Ellipse 35" cx="10" cy="10" r="10" transform="translate(631 550)" fill="#fff"/>
      <circle id="Ellipse_36" data-name="Ellipse 36" cx="10" cy="10" r="10" transform="translate(631 590)" fill="#fff"/>
      <path id="Path_9" data-name="Path 9" d="M10-1c5.523,0,10,5.477,10,11A10,10,0,0,1,0,10C0,4.477,4.477-1,10-1Z" transform="translate(631 631)" fill="#fff"/>
      <circle id="Ellipse_37" data-name="Ellipse 37" cx="10" cy="10" r="10" transform="translate(631 671)" fill="#fff"/>
      <circle id="Ellipse_38" data-name="Ellipse 38" cx="10" cy="10" r="10" transform="translate(591 451)" fill="#fff"/>
      <circle id="Ellipse_39" data-name="Ellipse 39" cx="10" cy="10" r="10" transform="translate(591 491)" fill="#fff"/>
      <circle id="Ellipse_40" data-name="Ellipse 40" cx="10" cy="10" r="10" transform="translate(591 531)" fill="#fff"/>
      <circle id="Ellipse_41" data-name="Ellipse 41" cx="10" cy="10" r="10" transform="translate(591 571)" fill="#fff"/>
      <circle id="Ellipse_42" data-name="Ellipse 42" cx="10" cy="10" r="10" transform="translate(591 611)" fill="#fff"/>
      <path id="Path_10" data-name="Path 10" d="M10-1c5.523,0,10,5.477,10,11A10,10,0,0,1,0,10C0,4.477,4.477-1,10-1Z" transform="translate(591 652)" fill="#fff"/>
      <circle id="Ellipse_43" data-name="Ellipse 43" cx="10" cy="10" r="10" transform="translate(591 692)" fill="#fff"/>
      <circle id="Ellipse_44" data-name="Ellipse 44" cx="10" cy="10" r="10" transform="translate(551 471)" fill="#fff"/>
      <circle id="Ellipse_45" data-name="Ellipse 45" cx="10" cy="10" r="10" transform="translate(551 511)" fill="#fff"/>
      <circle id="Ellipse_46" data-name="Ellipse 46" cx="10" cy="10" r="10" transform="translate(551 551)" fill="#fff"/>
      <circle id="Ellipse_47" data-name="Ellipse 47" cx="10" cy="10" r="10" transform="translate(551 591)" fill="#fff"/>
      <circle id="Ellipse_48" data-name="Ellipse 48" cx="10" cy="10" r="10" transform="translate(551 631)" fill="#fff"/>
      <path id="Path_11" data-name="Path 11" d="M10-1c5.523,0,10,5.477,10,11A10,10,0,0,1,0,10C0,4.477,4.477-1,10-1Z" transform="translate(551 672)" fill="#fff"/>
      <circle id="Ellipse_50" data-name="Ellipse 50" cx="10" cy="10" r="10" transform="translate(511 492)" fill="#fff"/>
      <circle id="Ellipse_51" data-name="Ellipse 51" cx="10" cy="10" r="10" transform="translate(511 532)" fill="#fff"/>
      <circle id="Ellipse_52" data-name="Ellipse 52" cx="10" cy="10" r="10" transform="translate(511 572)" fill="#fff"/>
      <circle id="Ellipse_53" data-name="Ellipse 53" cx="10" cy="10" r="10" transform="translate(511 612)" fill="#fff"/>
      <circle id="Ellipse_54" data-name="Ellipse 54" cx="10" cy="10" r="10" transform="translate(511 652)" fill="#fff"/>
      <circle id="Ellipse_55" data-name="Ellipse 55" cx="10" cy="10" r="10" transform="translate(471 513)" fill="#fff"/>
      <circle id="Ellipse_56" data-name="Ellipse 56" cx="10" cy="10" r="10" transform="translate(471 553)" fill="#fff"/>
      <circle id="Ellipse_57" data-name="Ellipse 57" cx="10" cy="10" r="10" transform="translate(471 593)" fill="#fff"/>
      <circle id="Ellipse_58" data-name="Ellipse 58" cx="10" cy="10" r="10" transform="translate(471 633)" fill="#fff"/>
      <circle id="Ellipse_60" data-name="Ellipse 60" cx="10" cy="10" r="10" transform="translate(431 534)" fill="#fff"/>
      <circle id="Ellipse_61" data-name="Ellipse 61" cx="10" cy="10" r="10" transform="translate(431 574)" fill="#fff"/>
      <circle id="Ellipse_62" data-name="Ellipse 62" cx="10" cy="10" r="10" transform="translate(431 614)" fill="#fff"/>
      <circle id="Ellipse_63" data-name="Ellipse 63" cx="10" cy="10" r="10" transform="translate(391 555)" fill="#fff"/>
      <circle id="Ellipse_64" data-name="Ellipse 64" cx="10" cy="10" r="10" transform="translate(391 595)" fill="#fff"/>
      <circle id="Ellipse_67" data-name="Ellipse 67" cx="10" cy="10" r="10" transform="translate(351 576)" fill="#fff"/>
      <path id="Path_12" data-name="Path 12" d="M331.333,174.8,364.8,160s-13.633-31-33.467-45.333-43.5-17.167-48-14.667,18.333,7.833,26.667,20,10.567,15.459,14.667,24C333.333,162.056,331.333,174.8,331.333,174.8Z" transform="translate(203)" fill="#006ec4"/>
      <path id="Path_13" data-name="Path 13" d="M425.2,165.8l32.216,15.867s-.062-22.5,7.25-34,4.5-12,16.667-22,37.641-14.938,32-18S484.667,104.961,464.667,119,425.2,165.8,425.2,165.8Z" transform="translate(208 -9)" fill="#006ec4"/>
    </g>
  </g>
</svg>
